<?xml version="1.0" encoding="utf-8"?>
<!-- Generator: Adobe Illustrator 26.0.1, SVG Export Plug-In . SVG Version: 6.00 Build 0)  -->
<svg version="1.1" id="Capa_1" xmlns="http://www.w3.org/2000/svg" xmlns:xlink="http://www.w3.org/1999/xlink" x="0px" y="0px"
	 viewBox="0 0 291 198.4" style="enable-background:new 0 0 291 198.4;" xml:space="preserve">
<style type="text/css">
	.st0{fill:#FFFFFF;}
</style>
<g>
	<path class="st0" d="M252.1,184.5l-0.2-0.2v-6.2l0.2-0.2h14l0.2,0.2v6.2l-0.2,0.2H252.1z M249.6,163.5l-0.2,0.2v3.4l0.2,0.2h16.5
		l0.2,0.2v6.2l-0.2,0.2h-14l-0.4,0.1l-3.9,3.6l-0.2,0.4v6.2l0.2,0.4l3.9,3.6l0.4,0.1h14l0.4-0.1l3.9-3.6l0.2-0.4v-16.7l-0.2-0.4
		l-3.9-3.6l-0.4-0.1h-16.5V163.5z M221.3,188.3l0.2-0.2v-20.6l0.2-0.2h14l0.2,0.2v20.6l0.2,0.2h3.8l0.2-0.2v-20.6l-0.2-0.4l-3.9-3.6
		l-0.4-0.1h-18.3l-0.2,0.2V188l0.2,0.2h4V188.3z M205,167.3l0.2,0.2v16.7l-0.2,0.2h-14l-0.2-0.2v-16.7l0.2-0.2H205z M191,163.5
		l-0.4,0.1l-3.9,3.6l-0.2,0.4v16.7l0.2,0.4l3.9,3.6l0.4,0.1h14l0.4-0.1l3.9-3.6l0.2-0.4v-16.7l-0.2-0.4l-3.9-3.6l-0.4-0.1H191z
		 M181,188.3l0.2-0.2v-3.4l-0.2-0.2h-11.8l-0.2-0.2v-32.1l-0.2-0.2H165l-0.2,0.2v32.1l0.2,0.4l3.9,3.6l0.4,0.1H181V188.3z
		 M152.8,167.3l0.2,0.2v6.2l-0.2,0.2h-14l-0.2-0.2v-6.2l0.2-0.2H152.8z M157.1,188.3l0.2-0.2v-3.4l-0.2-0.2h-18.3l-0.2-0.2V178
		l0.2-0.2h14l0.4-0.1l3.9-3.6l0.2-0.4v-6.2l-0.2-0.4l-3.9-3.6l-0.4-0.1h-14l-0.4,0.1l-3.9,3.6l-0.2,0.4v16.7l0.2,0.4l3.9,3.6
		l0.4,0.1H157.1z M127,163.5h-18.4l-0.4,0.1l-3.9,3.6l-0.2,0.4v16.7l0.2,0.4l3.9,3.6l0.4,0.1H127l0.2-0.2v-3.4l-0.2-0.2h-18.3
		l-0.2-0.2v-16.7l0.2-0.2H127l0.2-0.2v-3.4L127,163.5z M85.7,163.5l-0.4,0.1l-3.9,3.6l-0.2,0.4v20.6l0.2,0.2h3.8l0.2-0.2v-20.6
		l0.2-0.2h14l0.2-0.2v-3.4l-0.2-0.2H85.7V163.5z M54.9,184.5l-0.2-0.2v-6.2l0.2-0.2h14l0.2,0.2v6.2l-0.2,0.2H54.9z M52.4,163.5
		l-0.2,0.2v3.4l0.2,0.2h16.5l0.2,0.2v6.2l-0.2,0.2h-14l-0.4,0.1l-3.9,3.6l-0.2,0.4v6.2l0.2,0.4l3.9,3.6l0.4,0.1h14l0.4-0.1l3.9-3.6
		l0.2-0.4v-16.7l-0.2-0.4l-3.9-3.6l-0.4-0.1H52.4V163.5z M38.6,167.3l0.2,0.2v16.7l-0.2,0.2h-14l-0.2-0.2v-16.7l0.2-0.2H38.6z
		 M24.2,163.2v-11.1l-0.2-0.2h-3.8l-0.2,0.2v32.1l0.2,0.4l3.9,3.6l0.4,0.1h14l0.4-0.1l3.9-3.6l0.2-0.4v-16.7l-0.2-0.4l-3.9-3.6
		l-0.4-0.1h-14L24.2,163.2z M273.1,47.4v11l-0.7,0.7h-59.1l-0.7,0.7v54l0.7,0.7h59.1l0.7,0.7v11l-0.7,0.7h-59.1l-1.3-0.4L199.2,115
		l-0.6-1.2v-54l0.6-1.2l12.7-11.5l1.3-0.4h59.1L273.1,47.4z M121.8,27.7h12.4l0.7-0.7V10.2l-0.7-0.7h-12.4l-0.7,0.7V27L121.8,27.7z
		 M135.8,127l-1.3-0.4L121.8,115l-0.6-1.2V47.4l0.7-0.7h12.4l0.7,0.7v66.4l0.7,0.7H181l0.7,0.7v11l-0.7,0.7h-45.3V127z M79.2,46.7
		l-0.7,0.7v66.4l-0.7,0.7H32.5l-0.7-0.7V47.4L31,46.7H18.5l-0.7,0.7v66.4l0.6,1.2l12.7,11.5l1.3,0.4h59.2l0.7-0.7V47.4l-0.7-0.7
		H79.2z"/>
	<polygon class="st0" points="134.2,9.4 121.8,9.4 121.2,10.2 121.2,27 121.8,27.7 134.2,27.7 135,27 135,10.2 	"/>
</g>
</svg>
